<svg xmlns="http://www.w3.org/2000/svg" viewBox="0 0 642.61 273.1"><defs><style>.cls-1{fill:#e6e6e6;}.cls-2{fill:#3f3d56;}.cls-3{fill:#e07a5f;}.cls-4{fill:#202830;}</style></defs><g id="Layer_2" data-name="Layer 2"><g id="Layer_1-2" data-name="Layer 1"><path class="cls-1" d="M393.2,273.1H250a7.34,7.34,0,0,1-7.34-7.34V7.34A7.34,7.34,0,0,1,250,0H393.2a7.34,7.34,0,0,1,7.34,7.34V265.76A7.34,7.34,0,0,1,393.2,273.1ZM306,1.23A62.08,62.08,0,0,0,243.9,63.3V265.76a6.12,6.12,0,0,0,6.12,6.12H393.2a6.12,6.12,0,0,0,6.12-6.12V7.34a6.11,6.11,0,0,0-6.12-6.11Z"/><path class="cls-1" d="M399.8,68.1c0,.44.49.79,1.1.79H590.07c.61,0,1.1-.35,1.1-.79s-.49-.79-1.1-.79H400.9c-.61,0-1.1.35-1.1.79Z"/><polygon class="cls-2" points="245.95 180.8 247.82 230.41 243.27 230.41 243.27 236.03 256 236.03 256 230.41 252.29 230.41 252.56 180.8 245.95 180.8"/><path class="cls-2" d="M241,222.45h0a3.51,3.51,0,0,1,3.51,3.51v14.51A3.51,3.51,0,0,1,241,244h0a3.51,3.51,0,0,1-3.51-3.51V226A3.51,3.51,0,0,1,241,222.45Z"/><path class="cls-2" d="M258.82,222.45h0a3.51,3.51,0,0,1,3.51,3.51v14.51a3.51,3.51,0,0,1-3.51,3.51h0a3.51,3.51,0,0,1-3.51-3.51V226A3.51,3.51,0,0,1,258.82,222.45Z"/><polygon class="cls-3" points="287.37 149.89 215.3 146.61 226.53 141.46 289.71 142.4 287.37 149.89"/><polygon class="cls-1" points="0 157.16 8.71 153.88 278.95 160.91 290.18 155.76 285.5 187.58 70.83 164.71 0 157.16"/><polygon class="cls-2" points="69.5 175.65 70.83 164.71 285.5 187.58 284.33 203.73 69.5 175.65"/><ellipse class="cls-2" cx="213.89" cy="184.31" rx="22.23" ry="23.64"/><circle class="cls-3" cx="213.89" cy="180.09" r="16.38"/><polygon class="cls-2" points="396.66 180.8 394.79 230.41 399.35 230.41 399.35 236.03 386.61 236.03 386.61 230.41 390.32 230.41 390.06 180.8 396.66 180.8"/><rect class="cls-2" x="398.06" y="222.45" width="7.02" height="21.53" rx="3.51"/><rect class="cls-2" x="380.28" y="222.45" width="7.02" height="21.53" rx="3.51"/><polygon class="cls-3" points="355.24 149.89 427.32 146.61 416.08 141.46 352.9 142.4 355.24 149.89"/><polygon class="cls-3" points="329.44 139.8 326.17 67.72 321.02 78.96 321.95 142.14 329.44 139.8"/><polygon class="cls-1" points="642.61 157.16 633.91 153.88 363.66 160.91 352.43 155.76 357.11 187.58 571.78 164.71 642.61 157.16"/><polygon class="cls-2" points="573.11 175.65 571.78 164.71 357.11 187.58 358.28 203.73 573.11 175.65"/><ellipse class="cls-2" cx="428.72" cy="184.31" rx="22.23" ry="23.64"/><circle class="cls-3" cx="428.72" cy="180.09" r="16.38"/><path class="cls-1" d="M362.14,140.91l-1.06,7.83-.55,42.14a42.63,42.63,0,0,1-1.13,9.24,41,41,0,0,1-13.91,22.48,37.49,37.49,0,0,1-26.76,8.51C287.84,229.24,285.11,203,285.11,203l1.17-47.68.16-6.53,1.4-11.8s3.75-33.23,38.38-32.3S362.14,140.91,362.14,140.91Z"/><polygon class="cls-4" points="295.33 129.92 302.35 118.69 311.24 115.88 341.67 115.88 349.15 118.69 355.95 129.92 343.54 124.3 308.72 124.3 295.33 129.92"/><polygon class="cls-2" points="321.08 210.68 322.28 242.5 319.35 242.5 319.35 246.1 327.52 246.1 327.52 242.5 325.14 242.5 325.31 210.68 321.08 210.68"/><path class="cls-2" d="M317.92,237.4h0a2.26,2.26,0,0,1,2.26,2.25V249a2.26,2.26,0,0,1-2.26,2.25h0a2.25,2.25,0,0,1-2.25-2.25v-9.31A2.25,2.25,0,0,1,317.92,237.4Z"/><path class="cls-2" d="M329.33,237.4h0a2.25,2.25,0,0,1,2.25,2.25V249a2.25,2.25,0,0,1-2.25,2.25h0a2.25,2.25,0,0,1-2.25-2.25v-9.31A2.25,2.25,0,0,1,329.33,237.4Z"/><rect class="cls-3" x="297.67" y="120.14" width="24.16" height="1.29" transform="translate(110.47 386.92) rotate(-74.48)"/><rect class="cls-3" x="342.73" y="112.59" width="1.29" height="24.16" transform="matrix(0.98, -0.19, 0.19, 0.98, -17.59, 68.55)"/><circle class="cls-1" cx="474.92" cy="67.09" r="8.41"/><circle class="cls-1" cx="242.24" cy="94.61" r="8.41"/><path class="cls-1" d="M51.89,252.4c0,.44.49.79,1.1.79H242.16c.61,0,1.1-.35,1.1-.79s-.49-.79-1.1-.79H53C52.38,251.61,51.89,252,51.89,252.4Z"/><circle class="cls-1" cx="127.02" cy="251.39" r="8.41"/></g></g></svg>