<?xml version="1.0" encoding="utf-8"?>
<!-- Generator: Adobe Illustrator 26.0.0, SVG Export Plug-In . SVG Version: 6.00 Build 0)  -->
<svg version="1.1" id="Layer_1" xmlns="http://www.w3.org/2000/svg" xmlns:xlink="http://www.w3.org/1999/xlink" x="0px" y="0px"
	 viewBox="0 0 532 532" style="enable-background:new 0 0 532 532;" xml:space="preserve">
<style type="text/css">
	.st0{fill:#EFEFEF;}
	.st1{fill:#A0616A;}
	.st2{fill:#E07A5F;}
	.st3{fill:#2F2E41;}
</style>
<path class="st0" d="M530.5,266.5c0,66.7-24.8,127.6-65.7,174.1c-2.5,2.8-5.1,5.6-7.7,8.4c-4.1,4.2-8.3,8.4-12.6,12.3
	c-1.7,1.5-3.3,3-5,4.5c-17.1,14.8-36.1,27.5-56.6,37.6c-7.2,3.5-14.6,6.8-22.1,9.7c-29.3,11.2-61.1,17.4-94.3,17.4
	c-32,0-62.8-5.7-91.2-16.2c-11.7-4.3-23-9.4-33.8-15.3c-1.6-0.9-3.2-1.7-4.7-2.6c-8.3-4.7-16.2-9.8-23.9-15.3
	c-5.7-4.1-11.3-8.4-16.7-13c-1.9-1.6-3.7-3.2-5.6-4.8c-3-2.7-5.9-5.4-8.8-8.2c-5.4-5.3-10.6-10.8-15.5-16.5
	C26.6,392.3,2.5,332.1,2.5,266.5c0-145.6,118.4-264,264-264S530.5,120.9,530.5,266.5z"/>
<g>
	<polygon class="st1" points="297.1,387.2 309.7,308.1 224.3,273.3 211.6,393.6 	"/>
	<path class="st2" d="M382.9,504.2c-7.3,3.6-14.8,6.8-22.4,9.7c-15.2,5.7-30.8,10.1-46.9,13c-15.7,2.8-31.8,4.3-48,4.3
		c-21.8,0-43.5-2.6-64.4-7.8c-8.2-2-16.5-4.5-24.6-7.3c-0.9-0.3-1.7-0.6-2.6-0.9c-10.1-3.7-20-8-29.6-12.8c-1.3-0.6-2.6-1.3-3.9-2
		c-1.4-0.7-2.8-1.5-4.3-2.3c-1.8-1-3.6-2-5.4-3.1c-6-3.5-12-7.3-17.7-11.2l-0.4-0.3c-0.3-0.2-0.7-0.5-1-0.7c0.2-1.1,0.4-2.1,0.6-3
		c0.7-3.5,1.2-5.4,1.2-5.4l38.3-79l10.7-22l5.2-2.1l39.3-16.1h96l30.3,12.5c0,0,0.2,0.6,0.5,1.7c3,10.8,20.6,72.3,48,132.5
		C382.2,502.5,382.6,503.3,382.9,504.2L382.9,504.2z"/>
	<circle class="st1" cx="275.5" cy="246.4" r="87.1"/>
	<path class="st2" d="M168,370.3l-0.1,0.8l-26.6,126.3l-0.2,1.1l-0.4,1.7c-1.4-0.7-2.8-1.5-4.3-2.3c-1.8-1-3.6-2-5.4-3.1
		c-6-3.5-12-7.3-17.6-11.2l-0.4-0.3c-0.3-0.2-0.7-0.5-1-0.7c-4.3-3-8.6-6.2-12.7-9.5c0,0,0,0-0.1-0.1c-7.4-5.9-14.5-12.3-21.3-19.1
		c-4.4-4.4-8.6-8.9-12.6-13.5l0.6-2.6l0.1-0.3l0.8-3.3c6.8-28.5,29.6-50.5,58.4-56l38.3-7.3L168,370.3z"/>
	<path class="st2" d="M439.4,467.2c-11.3,9.6-23.4,18.3-36.1,25.9c-1.2,0.8-2.5,1.5-3.8,2.2c-5.4,3.1-10.9,6.1-16.5,8.8
		c-7.3,3.6-14.8,6.8-22.4,9.7l-0.6-2.8l-30-142.7l3.9,0.7l38.9,7.5c28.8,5.5,51.7,27.4,58.4,56l7.4,31.5L439.4,467.2L439.4,467.2z"
		/>
	<path class="st3" d="M375.8,269.7c-2.3,8.4-13.7,46.2-42.8,54.1c-5.7,1.6-19.4,3.4-15.8,0c0.8-0.8,1.6-1.5,2.4-2.3
		c31.7-29.8,44.6-48,38.7-88.4c-3.7-25.7-46.4-49.1-70.4-51.4c-10.1-1-23,2.4-31.6,11.3c-14.1,14.5-11.8,59.1-19.6,85.4
		c-2.1,7-4.9,12.7-8.9,16.2c-2.5,2.2-4.1-0.6-5.3-5.1c-2.5-9.5-3.2-27-6.8-22.1c-10.4,14.3-0.5,33.2,2.5,40.6
		c0.6,1.5,1.2,2.9,1.9,4.3v0c0.4,0.8,0.7,1.6,1.1,2.3v0c10,20.3,22,27.6,32.5,40.3c4.2,5,8.1,10.7,11.6,18.4
		c2.4,5.3,4.1,10.6,5.3,15.8c6.1,26.1-1.1,49.9-3.1,56.3c-4.1,13.4-11.1,36.5-31.6,49.6c-25.7,16.4-49.2,1.9-60.5,17.5
		c-0.1,0.2-0.3,0.4-0.4,0.5c-0.4,0.6-0.8,1.3-1.1,1.9c-10.1-3.7-20-8-29.6-12.8c-1.3-0.6-2.6-1.3-3.9-2c-1.4-0.7-2.8-1.5-4.3-2.3
		c-0.1-1.1-0.1-2.2-0.2-3.3c-0.8-18.9,0.4-39.7,5.1-60.4c3-13.2,6-26.4,10.6-39c3-8.2,6.7-16.3,11.5-24.1c3.9-6.2,8.4-12.3,14-18.1
		c12.2-12.8,23.1-18.1,24.8-31.6c2.5-19.2-17.6-25-24.8-54.1c-4.9-19.9-10.1-48.6-5.1-67.9c4.7-18.3,8.8-34.1,22.5-49.6
		c3.3-3.7,30.4-29.6,61.7-33.8c14.5-1.9,27.3,16.6,44.8,20.5c20.1,4.6,31.6,7.2,42.8,15.8c19,14.5,24.3,36.2,29.3,56.4
		C377.5,224.6,382.5,245,375.8,269.7L375.8,269.7z"/>
</g>
</svg>
