<?xml version="1.0" encoding="utf-8"?>
<!-- Generator: Adobe Illustrator 26.0.0, SVG Export Plug-In . SVG Version: 6.00 Build 0)  -->
<svg version="1.1" id="Layer_1" xmlns="http://www.w3.org/2000/svg" xmlns:xlink="http://www.w3.org/1999/xlink" x="0px" y="0px"
	 viewBox="0 0 532 532" style="enable-background:new 0 0 532 532;" xml:space="preserve">
<style type="text/css">
	.st0{fill:#EFEFEF;}
	.st1{fill:#2F2E41;}
	.st2{fill:#FFB6B6;}
	.st3{fill:#E07A5F;}
	.st4{fill:#FFFFFF;}
</style>
<path class="st0" d="M530,266c0,66.7-24.8,127.6-65.7,174.1c-2.5,2.8-5.1,5.6-7.7,8.4c-4.1,4.2-8.3,8.4-12.6,12.3
	c-1.7,1.5-3.3,3-5,4.5c-17.1,14.8-36.1,27.5-56.6,37.6c-7.2,3.5-14.6,6.8-22.1,9.7C331,523.8,299.2,530,266,530
	c-32,0-62.8-5.7-91.2-16.2c-11.7-4.3-23-9.4-33.8-15.3c-1.6-0.9-3.2-1.7-4.7-2.6c-8.3-4.7-16.2-9.8-23.9-15.3
	c-5.7-4.1-11.3-8.4-16.7-13c-1.9-1.6-3.7-3.2-5.6-4.8c-3-2.7-5.9-5.4-8.8-8.2c-5.4-5.3-10.6-10.8-15.5-16.5
	C26.1,391.8,2,331.6,2,266C2,120.4,120.4,2,266,2S530,120.4,530,266z"/>
<polygon class="st1" points="379.2,379 246.2,379 246.2,199 361.2,262 "/>
<circle class="st2" cx="270.8" cy="260.9" r="86.3"/>
<polygon class="st2" points="221.2,360 217.3,320.6 295.2,306 341.2,418 261.2,510 204.2,398 "/>
<path class="st3" d="M457,451.1c-1,1-2,2-2.9,3c-3.1,3.1-6.3,6.2-9.6,9.2C395.5,507.7,332.6,532,266,532
	c-61.4,0-119.6-20.7-166.8-58.7c0,0,0,0-0.1-0.1c-1.4-1.1-2.8-2.3-4.2-3.5c0.2-0.7,0.5-1.4,0.8-2.1c15.1-39.5,45.1-58.8,63.2-67.2
	c9-4.2,15.1-5.7,15.1-5.7l21.3-38.4l15,28l11.1,20.6l45.4,84.7L306,392l12.1-30.2l3.1-7.7l14.8,11.5l14,10.9l28.2,6.2l22.9,5
	l31.1,6.9c12.6,10.2,20.2,29.7,24.5,53.9C456.8,449.3,456.9,450.2,457,451.1z"/>
<path class="st1" d="M225.3,162.8c10.5-17.7,29.8-29.8,50.3-31.6s41.6,6.8,55,22.4c8,9.3,13.2,20.7,21,30.1
	c16.8,20.3,45.4,32.2,52.7,57.6c3.2,11.1,1.6,22.9,0,34.2c-1.4,9.8-2.8,19.5-4.2,29.3c-1.1,7.6-2.1,15.6,0.7,22.7
	c3.3,8.4,11.3,13.8,16.5,21.2c8.8,12.5,8.2,30.9-1.5,42.8c-4.2,5.2-9.7,9-14.1,14s-7.6,11.8-5.8,18.2c3.5,12.2,22.7,15.2,24.8,27.7
	c1.1,6.4-3.4,12.8-9.2,15.8s-12.6,3-19.1,2.2c-24.6-3-47.3-18.3-59.2-40c-12-21.7-12.8-49.1-2.3-71.4c8.7-18.4,24.8-34.6,24.6-54.9
	c-0.1-11.1-5.2-21.4-10.1-31.3c-10.2-20.2-20.3-40.5-30.5-60.7c-5.4-10.8-11.8-22.5-23-27.2c-8.7-3.6-18.5-2.2-27.7-0.7
	s-19.1,2.9-27.8-0.6s-15.2-14-11.1-22.5"/>
<path class="st1" d="M240.5,163.7c-16.7-5.5-35.4,3.3-46.7,16.8s-16.8,30.7-22,47.5c-3,9.6-6,19.2-9,28.8c-2.8,9-5.6,18.1-8.4,27.1
	c-3.3,10.6-6.6,21.9-3.9,32.7c2,7.8,7,14.9,7.1,22.9c0.1,8.4-5.2,15.8-9.8,22.8s-8.9,15.4-6.7,23.5c3.3,12.3,20.5,19.1,19.6,31.9
	c-0.3,4.3-2.8,8.2-2.7,12.5c0.1,5.4,4.3,10.1,9.3,12.3c5,2.2,10.6,2.3,16,2.2c16.7-0.3,33.3-2.3,49.5-5.9c6.3-1.4,12.6-3.1,17.8-6.8
	s9.1-9.9,8.4-16.3c-1.1-9.9-11.7-15.6-17.1-24c-5.3-8.3-5.2-18.7-7.5-28.3c-3.1-13.1-10.9-24.6-16.7-36.7
	c-21.9-45.7-14.2-104,18.7-142.5c2.9-3.4,6.1-6.8,7.3-11.1s-0.4-9.8-4.6-11.3"/>
<path class="st4" d="M454.1,77.9C403.8,27.7,337,0,266,0S128.2,27.7,77.9,77.9C27.7,128.1,0,194.9,0,266c0,64.8,23,126.2,65.3,174.6
	c4,4.6,8.2,9.1,12.6,13.5l3.1,3.1c2.8,2.7,5.6,5.4,8.5,7.9c1.8,1.6,3.5,3.1,5.3,4.6c1.4,1.2,2.8,2.4,4.2,3.5c0,0,0.1,0,0.1,0.1
	c47.1,38,105.3,58.7,166.8,58.7c66.6,0,129.5-24.3,178.5-68.8c3.3-3,6.5-6,9.6-9.2c1-1,2-2,2.9-3c2.7-2.8,5.3-5.6,7.9-8.5
	C508.3,393.9,532,331.8,532,266C532,194.9,504.3,128.1,454.1,77.9z M464.3,440.1c-2.5,2.8-5.1,5.6-7.7,8.4
	c-4.1,4.2-8.3,8.4-12.6,12.3c-1.7,1.5-3.3,3-5,4.5c-17.1,14.8-36.1,27.5-56.6,37.6c-7.2,3.5-14.6,6.8-22.1,9.7
	C331,523.8,299.2,530,266,530c-32,0-62.8-5.7-91.2-16.2c-11.7-4.3-23-9.4-33.8-15.3c-1.6-0.9-3.2-1.7-4.7-2.6
	c-8.3-4.7-16.2-9.8-23.9-15.3c-5.7-4.1-11.3-8.4-16.7-13c-1.9-1.6-3.7-3.2-5.6-4.8c-3-2.7-5.9-5.4-8.8-8.2
	c-5.4-5.3-10.6-10.8-15.5-16.5C26.1,391.8,2,331.6,2,266C2,120.4,120.4,2,266,2s264,118.4,264,264
	C530,332.7,505.2,393.6,464.3,440.1z"/>
</svg>
