<?xml version="1.0" encoding="utf-8"?>
<!-- Generator: Adobe Illustrator 26.0.0, SVG Export Plug-In . SVG Version: 6.00 Build 0)  -->
<svg version="1.1" id="Layer_1" xmlns="http://www.w3.org/2000/svg" xmlns:xlink="http://www.w3.org/1999/xlink" x="0px" y="0px"
	 viewBox="0 0 532 532" style="enable-background:new 0 0 532 532;" xml:space="preserve">
<style type="text/css">
	.st0{fill:#EFEFEF;}
	.st1{fill:#A0616A;}
	.st2{fill:#2F2E41;}
	.st3{fill:#E07A5F;}
</style>
<path class="st0" d="M530.5,266.5c0,66.7-24.8,127.6-65.7,174.1c-2.5,2.8-5.1,5.6-7.7,8.4c-4.1,4.2-8.3,8.4-12.6,12.3
	c-1.7,1.5-3.3,3-5,4.5c-17.1,14.8-36.1,27.5-56.6,37.6c-7.2,3.5-14.6,6.8-22.1,9.7c-29.3,11.2-61.1,17.4-94.3,17.4
	c-32,0-62.8-5.7-91.2-16.2c-11.7-4.3-23-9.4-33.8-15.3c-1.6-0.9-3.2-1.7-4.7-2.6c-8.3-4.7-16.2-9.8-23.9-15.3
	c-5.7-4.1-11.3-8.4-16.7-13c-1.9-1.6-3.7-3.2-5.6-4.8c-3-2.7-5.9-5.4-8.8-8.2c-5.4-5.3-10.6-10.8-15.5-16.5
	C26.6,392.3,2.5,332.1,2.5,266.5c0-145.6,118.4-264,264-264S530.5,120.9,530.5,266.5z"/>
<g>
	<g>
		<circle class="st1" cx="270.8" cy="260.9" r="86.3"/>
		<polygon class="st1" points="199.3,366.6 217.3,320.6 310.3,306.6 320.3,408.4 226.3,410.4 		"/>
	</g>
	<path class="st2" d="M357.9,276.9c-1.1,4.5-3.4,15.2-6.9,15.2c-2.9,0-5.7-46.3-2.8-54c3.3-8.8-5.4-20-12-25.7
		c-11.8-10.3-38,11.8-64.7,1.8c-0.7-0.3-0.6-0.2-9-3.6c-25.9-10.3-27.3-10.6-28.7-10.8c-12.6-1.2-27.9,9-34.1,21.6
		c-6.5,13-1.1,24.2-7.2,55.7c-0.7,3.7-1.8,8.9-3.6,9c-3.2,0.1-6.4-17-7.2-21.6c-3.4-18.9-6.8-37,0-57.5c0.7-2.2,5.3-10.5,14.4-26.9
		c13.1-23.7,19.7-35.6,21.6-37.7c13.6-15.3,38.4-29.3,59.3-23.3c10.5,3,8.6,7.9,21.6,12.6c23,8.4,43-1.9,46.7,5.4
		c2,3.8-3.5,7-3.6,14.4c-0.1,12.6,15.8,16.3,25.1,28.7C371.8,186.8,380.4,186.9,357.9,276.9L357.9,276.9z"/>
</g>
<path class="st3" d="M464.9,442.6c-3.5,3.9-7.1,7.7-10.8,11.5C403.9,504.3,337.1,532,266,532c-61.4,0-119.6-20.7-166.8-58.7
	c0,0-0.1,0-0.1-0.1c-6.2-5-12.3-10.4-18.1-16.1c0.1-0.9,0.2-1.8,0.4-2.6c0.8-5.8,1.7-11.3,2.8-16.4c8.4-41.7,118.2-85.5,121.1-86.7
	c0,0,0.1,0,0.1,0s14.1,52.1,74.7,51.5c41.3-0.5,33.3-51.5,33.3-51.5s0.5,0.1,1.4,0.3c11.9,2.5,94.7,20.7,127.3,45.5
	c9.9,7.6,17.1,23.7,22.2,42.9C464.5,440.9,464.7,441.8,464.9,442.6z"/>
</svg>
