<?xml version="1.0" encoding="utf-8"?>
<!-- Generator: Adobe Illustrator 26.0.0, SVG Export Plug-In . SVG Version: 6.00 Build 0)  -->
<svg version="1.1" id="Layer_1" xmlns="http://www.w3.org/2000/svg" xmlns:xlink="http://www.w3.org/1999/xlink" x="0px" y="0px"
	 viewBox="0 0 532 532" style="enable-background:new 0 0 532 532;" xml:space="preserve">
<style type="text/css">
	.st0{fill:#EFEFEF;}
	.st1{fill:#FFB6B6;}
	.st2{fill:#2F2E41;}
	.st3{fill:#E07A5F;}
</style>
<path class="st0" d="M530.5,266.5c0,66.7-24.8,127.6-65.7,174.1c-2.5,2.8-5.1,5.6-7.7,8.4c-4.1,4.2-8.3,8.4-12.6,12.3
	c-1.7,1.5-3.3,3-5,4.5c-17.1,14.8-36.1,27.5-56.6,37.6c-7.2,3.5-14.6,6.8-22.1,9.7c-29.3,11.2-61.1,17.4-94.3,17.4
	c-32,0-62.8-5.7-91.2-16.2c-11.7-4.3-23-9.4-33.8-15.3c-1.6-0.9-3.2-1.7-4.7-2.6c-8.3-4.7-16.2-9.8-23.9-15.3
	c-5.7-4.1-11.3-8.4-16.7-13c-1.9-1.6-3.7-3.2-5.6-4.8c-3-2.7-5.9-5.4-8.8-8.2c-5.4-5.3-10.6-10.8-15.5-16.5
	C26.6,392.3,2.5,332.1,2.5,266.5c0-145.6,118.4-264,264-264S530.5,120.9,530.5,266.5z"/>
<circle class="st1" cx="270.8" cy="260.9" r="86.3"/>
<polygon class="st1" points="221.2,360.1 217.3,320.6 295.2,306.1 341.2,418.1 261.2,510.1 204.2,398.1 "/>
<path class="st2" d="M216,340.4l17,3.8c0,0-13.4-42.5-8.8-46.5c4.5-4.1,15.7,2.3,15.7,2.3l11.7,13.1l14.3-14.5
	c0,0,15.5-19.2,21.5-24.6s-3.7-25.5-3.7-25.5s89.9-24.2,56.4-67.8c0,0-19.6-34.2-26-23c-6.4,11.1-14-6.6-14-6.6l-23.3,4.4
	c0,0-45.9-27.1-89.5,30.8S216,340.4,216,340.4L216,340.4z"/>
<path class="st3" d="M433.2,473C386,511.2,327.6,532,266,532c-56.2,0-109.8-17.3-154.6-49.5c0.1-0.8,0.2-1.7,0.2-2.5
	c1.2-13,2.2-25.6,2.9-36.1c2.7-40.7,97.6-67.8,97.6-67.8s0.4,0.4,1.3,1.2c5.2,4.6,26.5,21.3,63.8,25.9c33.3,4.2,44.2-15.6,47.5-25
	c1-2.9,1.3-4.8,1.3-4.8l97.6,46.1c6.4,9.1,8.9,28.7,9.4,50.7C433.1,471.1,433.2,472,433.2,473z"/>
</svg>
