<?xml version="1.0" encoding="utf-8"?>
<!-- Generator: Adobe Illustrator 26.0.0, SVG Export Plug-In . SVG Version: 6.00 Build 0)  -->
<svg version="1.1" id="Layer_1" xmlns="http://www.w3.org/2000/svg" xmlns:xlink="http://www.w3.org/1999/xlink" x="0px" y="0px"
	 viewBox="0 0 532 532" style="enable-background:new 0 0 532 532;" xml:space="preserve">
<style type="text/css">
	.st0{fill:#EFEFEF;}
	.st1{fill:#8F8FAA;}
	.st2{fill:#2F2E41;}
	.st3{fill:#FFFFFF;}
</style>
<path class="st0" d="M530,266c0,66.7-24.8,127.6-65.7,174.1c-2.5,2.8-5.1,5.6-7.7,8.4c-4.1,4.2-8.3,8.4-12.6,12.3
	c-1.7,1.5-3.3,3-5,4.5c-17.1,14.8-36.1,27.5-56.6,37.6c-7.2,3.5-14.6,6.8-22.1,9.7C331,523.8,299.2,530,266,530
	c-32,0-62.8-5.7-91.2-16.2c-11.7-4.3-23-9.4-33.8-15.3c-1.6-0.9-3.2-1.7-4.7-2.6c-8.3-4.7-16.2-9.8-23.9-15.3
	c-5.7-4.1-11.3-8.4-16.7-13c-1.9-1.6-3.7-3.2-5.6-4.8c-3-2.7-5.9-5.4-8.8-8.2c-5.4-5.3-10.6-10.8-15.5-16.5
	C26.1,391.8,2,331.6,2,266C2,120.4,120.4,2,266,2S530,120.4,530,266z"/>
<circle class="st1" cx="260.3" cy="230.4" r="95.4"/>
<polygon class="st1" points="205.5,339.9 201.2,296.4 287.3,280.3 338.1,404 249.7,505.7 186.7,381.9 "/>
<path class="st2" d="M466,440.6c-1.1,1.1-2.2,2.2-3.2,3.3c-3.4,3.4-7,6.9-10.6,10.2C398.1,503.1,328.6,530,255,530
	c-67.8,0-132.2-22.9-184.3-64.9c0,0,0,0-0.1-0.1c-1.5-1.2-3.1-2.5-4.6-3.9c0.2-0.8,0.6-1.5,0.9-2.3c16.7-43.6,49.8-65,69.8-74.3
	c9.9-4.6,16.7-6.3,16.7-6.3l23.5-42.4l16.6,30.9l12.3,22.8l50.2,93.6l43.3-107.8l13.4-33.4l3.4-8.5l16.4,12.7l15.5,12L379,365
	l25.3,5.5l34.4,7.6c13.9,11.3,22.3,32.8,27.1,59.6C465.8,438.6,465.9,439.6,466,440.6z"/>
<path class="st3" d="M454.1,77.9C403.8,27.7,337,0,266,0S128.2,27.7,77.9,77.9C27.7,128.1,0,194.9,0,266c0,64.8,23,126.2,65.3,174.6
	c4,4.6,8.2,9.1,12.6,13.5l3.1,3.1c2.8,2.7,5.6,5.4,8.5,7.9c1.8,1.6,3.5,3.1,5.3,4.6c1.4,1.2,2.8,2.4,4.2,3.5c0,0,0.1,0,0.1,0.1
	c47.1,38,105.3,58.7,166.8,58.7c66.6,0,129.5-24.3,178.5-68.8c3.3-3,6.5-6,9.6-9.2c1-1,2-2,2.9-3c2.7-2.8,5.3-5.6,7.9-8.5
	C508.3,393.9,532,331.8,532,266C532,194.9,504.3,128.1,454.1,77.9z M464.3,440.1c-2.5,2.8-5.1,5.6-7.7,8.4
	c-4.1,4.2-8.3,8.4-12.6,12.3c-1.7,1.5-3.3,3-5,4.5c-17.1,14.8-36.1,27.5-56.6,37.6c-7.2,3.5-14.6,6.8-22.1,9.7
	C331,523.8,299.2,530,266,530c-32,0-62.8-5.7-91.2-16.2c-11.7-4.3-23-9.4-33.8-15.3c-1.6-0.9-3.2-1.7-4.7-2.6
	c-8.3-4.7-16.2-9.8-23.9-15.3c-5.7-4.1-11.3-8.4-16.7-13c-1.9-1.6-3.7-3.2-5.6-4.8c-3-2.7-5.9-5.4-8.8-8.2
	c-5.4-5.3-10.6-10.8-15.5-16.5C26.1,391.8,2,331.6,2,266C2,120.4,120.4,2,266,2s264,118.4,264,264
	C530,332.7,505.2,393.6,464.3,440.1z"/>
</svg>
