<?xml version="1.0" encoding="utf-8"?>
<!-- Generator: Adobe Illustrator 26.0.0, SVG Export Plug-In . SVG Version: 6.00 Build 0)  -->
<svg version="1.1" id="Layer_1" xmlns="http://www.w3.org/2000/svg" xmlns:xlink="http://www.w3.org/1999/xlink" x="0px" y="0px"
	 viewBox="0 0 675.7 631.9" style="enable-background:new 0 0 675.7 631.9;" xml:space="preserve">
<style type="text/css">
	.st0{fill:#DDDDDD;}
	.st1{fill:#CCCCCC;}
	.st2{fill:#FFFFFF;}
	.st3{fill:#16232C;}
	.st4{opacity:0.2;enable-background:new    ;}
	.st5{fill:#3F3D56;}
	.st6{fill:#FFB7B7;}
	.st7{fill:#E07A5F;}
	.st8{fill:#2F2E41;}
</style>
<path class="st0" d="M624.6,483.5l30.3,4.7c10.3-12.4,17.3-27.2,20.6-42.9c-22.2,18.1-55.9,8.5-82.7,18.4
	c-16.9,6.4-30,20.1-35.6,37.3l-14.8,15.9c27.1,10.7,57.6,9.1,83.4-4.6c7.1-3.9,13.7-8.6,19.6-14.1
	C634.8,491.6,624.6,483.5,624.6,483.5z"/>
<path class="st0" d="M613.8,435l29.2-9.3c3.6-15.7,3.4-32-0.7-47.6c-11.7,26.1-46.2,32.5-65.9,53.4c-12.3,13.3-17.9,31.4-15.2,49.3
	l-6.2,20.9c29.1-2.5,55.6-17.6,72.6-41.3c4.6-6.6,8.4-13.8,11.3-21.4C626.6,437.7,613.8,435,613.8,435z"/>
<path class="st1" d="M675.7,526.6c0,0.7-0.5,1.2-1.2,1.2l0,0H1.2c-0.7,0-1.2-0.5-1.2-1.2s0.5-1.2,1.2-1.2h673.3
	C675.1,525.4,675.7,525.9,675.7,526.6L675.7,526.6z"/>
<circle class="st0" cx="279" cy="260.9" r="215"/>
<path class="st2" d="M464,260.9c0,58.5-27.7,113.6-74.7,148.5c-1.5,1.2-3.1,2.3-4.7,3.4c-63.5,44.1-147.7,44.1-211.2,0
	c-1.6-1.1-3.2-2.2-4.7-3.4c-82-60.9-99.1-176.8-38.2-258.9c10.8-14.5,23.6-27.4,38.2-38.2c1.5-1.2,3.1-2.3,4.7-3.4
	c63.5-44.1,147.7-44.1,211.2,0c1.6,1.1,3.2,2.2,4.7,3.4C436.3,147.2,464,202.3,464,260.9z"/>
<circle class="st3" cx="279" cy="260.9" r="169"/>
<path class="st4" d="M279.4,92.3c-2.6,0-5.1,0.1-7.6,0.2c93,8.2,161.7,90.2,153.6,183.1c-7.4,84.4-76.1,150.2-160.7,154
	c4.9,0.4,9.8,0.7,14.8,0.7c93.3,0,169-75.7,169-169S372.8,92.3,279.4,92.3L279.4,92.3z"/>
<path class="st2" d="M279.5,79.9c-3,0-5.5,2.5-5.5,5.5v24c0,3,2.5,5.5,5.5,5.5s5.5-2.5,5.5-5.5v-24C285,82.3,282.5,79.9,279.5,79.9z
	"/>
<path class="st2" d="M389.3,112.4c-1.5-1.2-3.1-2.3-4.7-3.4c-1.9-0.1-3.8,0.8-4.9,2.4l-13.5,19.8c-1.7,2.5-1.1,5.9,1.5,7.6
	s5.9,1.1,7.6-1.5l13.5-19.8C389.8,116,390,114.1,389.3,112.4z"/>
<path class="st2" d="M450.7,202.8c-1.1-2.8-4.3-4.2-7.2-3l0,0l-22.2,9c-2.8,1.1-4.2,4.4-3,7.2c1.1,2.8,4.4,4.2,7.2,3l0,0l22.2-9
	C450.5,208.8,451.8,205.6,450.7,202.8z"/>
<path class="st2" d="M191.8,131.2l-13.5-19.8c-1.1-1.6-3-2.5-4.9-2.4c-1.6,1.1-3.2,2.2-4.7,3.4c-0.7,1.7-0.5,3.7,0.5,5.2l13.5,19.8
	c1.7,2.5,5.1,3.2,7.6,1.4C192.9,137.1,193.5,133.7,191.8,131.2z"/>
<path class="st2" d="M136.7,208.8l-22.2-9c-2.8-1.1-6,0.2-7.2,3s0.2,6,3,7.2l22.2,9c2.8,1.1,6-0.2,7.2-3S139.5,209.9,136.7,208.8
	L136.7,208.8z"/>
<path class="st2" d="M279.5,406.9c-3,0-5.5,2.5-5.5,5.5v24c0,3,2.5,5.5,5.5,5.5s5.5-2.5,5.5-5.5v-24
	C285,409.3,282.5,406.9,279.5,406.9z"/>
<path class="st2" d="M388.8,404.2l-13.5-19.8c-1.7-2.5-5.1-3.2-7.6-1.5s-3.2,5.1-1.5,7.6l13.5,19.8c1.1,1.6,3,2.5,4.9,2.4
	c1.6-1.1,3.2-2.2,4.7-3.4C390,407.7,389.8,405.7,388.8,404.2z"/>
<path class="st2" d="M447.7,311.8l-22.2-9c-2.8-1.1-6,0.2-7.2,3s0.2,6,3,7.2l0,0l22.2,9c2.8,1.1,6-0.2,7.2-3
	C451.9,316.1,450.5,312.9,447.7,311.8L447.7,311.8L447.7,311.8z"/>
<path class="st2" d="M190.3,382.9c-2.5-1.7-5.9-1.1-7.6,1.5l-13.5,19.8c-1,1.5-1.2,3.5-0.5,5.2c1.5,1.2,3.1,2.3,4.7,3.4
	c1.9,0.1,3.8-0.8,4.9-2.4l13.5-19.8C193.5,388,192.9,384.6,190.3,382.9L190.3,382.9z"/>
<path class="st2" d="M139.7,305.8c-1.1-2.8-4.3-4.2-7.2-3l0,0l-22.2,9c-2.8,1.1-4.2,4.4-3,7.2s4.4,4.2,7.2,3l22.2-9
	C139.5,311.8,140.8,308.6,139.7,305.8z"/>
<path class="st5" d="M286.6,258.1c1.1,6.3-3.2,12.2-9.4,13.3L179.6,288c-6.3,1.1-12.2-3.1-13.3-9.4s3.1-12.2,9.4-13.3l97.6-16.6
	C279.6,247.7,285.6,251.9,286.6,258.1z"/>
<path class="st5" d="M389.4,366.3c-2.9,2.9-7.7,3-10.6,0L273.7,262.1c-2.9-2.9-3-7.7,0-10.6c2.9-2.9,7.7-3,10.6,0l105.1,104.2
	C392.2,358.6,392.3,363.3,389.4,366.3z"/>
<circle class="st1" cx="279" cy="260.9" r="13"/>
<path class="st0" d="M189.5,35.4c-20,31.4-50.4,52.2-87.9,65.9c-3.1,2.3-7.5,1.7-9.9-1.4l0,0l0,0c-20.4-27.2-15.8-66.2,11.1-87
	C129.9-8,168.9-3,189.8,24.2c0.2,0.2,0.3,0.4,0.5,0.7l0.6,0.8C193.2,28.7,192.6,33.1,189.5,35.4z"/>
<path class="st0" d="M367.7,24.8c20.6-27.4,59.5-33,86.9-12.4c0.2,0.2,0.4,0.3,0.7,0.5c26.9,20.8,31.5,59.7,11.1,87l0,0
	c-2.3,3.1-6.8,3.8-9.9,1.4l0,0c-34.9-13.3-63.5-36.4-88-65.9c-3.1-2.3-3.8-6.8-1.4-9.9L367.7,24.8z"/>
<path class="st0" d="M358.9,447.1c-2.6,1.5-3.6,4.8-2.1,7.5l31.7,56.7c1.5,2.6,4.8,3.6,7.5,2.1c2.6-1.5,3.6-4.8,2.1-7.5l-31.7-56.7
	C364.9,446.6,361.6,445.7,358.9,447.1z"/>
<path class="st0" d="M191.6,449.2L159.8,506c-1.5,2.7-0.5,6,2.1,7.5c2.7,1.5,6,0.5,7.5-2.1l31.7-56.7c1.5-2.7,0.5-6-2.1-7.5
	C196.4,445.7,193.1,446.6,191.6,449.2L191.6,449.2L191.6,449.2z"/>
<circle class="st0" cx="395" cy="508.9" r="17"/>
<circle class="st0" cx="407" cy="73.9" r="17"/>
<circle class="st0" cx="278" cy="33.9" r="17"/>
<circle class="st0" cx="155" cy="71.9" r="17"/>
<circle class="st0" cx="166" cy="508.9" r="17"/>
<path class="st6" d="M381.7,356.7c2.5,4,7.8,5.1,11.8,2.6c0.4-0.3,0.8-0.6,1.2-0.9l26.7,14.3L420,357l-25.1-11.2
	c-3.4-3.3-8.8-3.1-12.1,0.3C379.9,349,379.5,353.4,381.7,356.7L381.7,356.7z"/>
<path class="st7" d="M401.1,362.2l10.5-14.4l50.4,23.8l62.7-11.8c11.7-2.2,22.9,5.5,25.1,17.1c0.2,1.3,0.4,2.6,0.4,3.9l0,0
	c0,11.9-9.6,21.5-21.4,21.5l-71.8,0.1L401.1,362.2z"/>
<polygon class="st6" points="385,611.4 374.4,606.3 389,562.1 404.6,569.6 "/>
<path class="st6" d="M455.9,604.3c-0.8,0.5-1.5,1-2.3,1.4c-1.5,0.9-3.1,1.9-4.7,2.8c-0.8,0.5-1.6,0.9-2.4,1.4l0,0l0,0l0,0l-1.2,0.3
	l-1.7-4.5l-0.8-2.1l-1.1-3l-2.1-5.4l-10.8-28.5l16.8-4.1l0.6,2.6l0,0l0.3,1.3l5.9,23.8l1.2,4.9v0.1l0.7,2.9l0.6,2.5l0.7,2.8
	L455.9,604.3z"/>
<path class="st8" d="M556.1,504.1c-1.1,1.7-2.2,3.4-3.2,5.1c-2,3.1-4.1,6.2-6.3,9.3l0,0c-1.3,1.2-2.6,2.2-4.1,3
	c-0.1,0-0.1,0.1-0.2,0.1c-1.1,0.6-2.3,1.1-3.5,1.4c-0.4,0.1-0.9,0.2-1.3,0.3c-1.6,0.4-3.1,0.7-4.7,1c-2.8,0.5-5.5,0.8-8.2,1.1
	c-0.2,0-0.4,0-0.7,0.1c-11.1,0.8-21.9-0.5-33.2-2.6c-5.6-1.1-11.3-2.3-17.2-3.6c-1.9-0.4-3.9-0.9-5.8-1.3c-0.1,0-0.3-0.1-0.5-0.1
	c-2.8-0.6-5.6-1.2-8.6-1.8c-3.7-0.8-7.5-1.5-11.4-2.2l0.3,5.5c0.2,4.3,1.1,8.5,2.6,12.5c1.7,4.9,3,8.8,0.2,16.9l-1.4,3.9
	c1.4,3.9,0.9,8.3-1.4,11.8l-0.3,0.4l11.3,28.5l0.7,1.8h-5.8h-7.1h-12l-17.4-34.8l-0.8-1.7v-0.1l1.8-66.9c0-0.6,0.1-1.2,0.1-1.8
	c0.6-5.4,3.4-10.4,7.7-13.7c4.1-3.2,9.4-4.7,14.6-4l5.9,0.8l12.1,1.6l8.6,1.1h0.2l25.2,3.3l1.8-7.4l0.3-0.1l10.6-3.9l36.7-13.5h0.1
	l2.4-0.9l0.3,0.5c0.1,0.1,0.2,0.3,0.2,0.4c2.4,4.3,4.3,8.8,5.8,13.5c2.5,7.6,4.5,15.4,6.1,23.3c0.1,0.3,0.1,0.7,0.2,0.9v0.1
	c0,0.1,0,0.2,0,0.2C558.2,495.6,557.6,499.9,556.1,504.1z"/>
<path class="st8" d="M557.6,479.5c-0.1-0.5-0.3-1-0.4-1.5c-1.2-3.7-2.7-7.3-4.3-10.9c-1.8-4-4-8.4-6.7-13.1
	c-1.3-2.3-2.6-4.6-4.1-7.1c-0.7-1.2-1.5-2.5-2.3-3.8c0-0.1-0.1-0.1-0.1-0.2l-0.2-0.4l-36.3,4.9l-13.5,1.8l-0.8,6.7l-0.2,1.7l0,0
	l-0.5,4.6l0,0l-0.7,6h-0.1l-20.1-2.6l-20.7-2.7l-11.1-1.4c-5.2-0.7-10.5,0.8-14.6,4c-4.3,3.3-7.1,8.3-7.7,13.7
	c-0.1,0.5-0.1,1.1-0.1,1.7l-10.5,24.9c-6.3,14.9-10.3,30.6-11.9,46.6L383,577l1.1,0.1l16.3,1.5l4.3,0.4l9.5-13.8
	c1.1-1.6,2.1-3.2,3.1-4.9c1.6-2.7,3-5.5,4.2-8.4l20.5-48.8c1.6,0.3,3.2,0.5,4.7,0.8c7.2,1.2,14.1,2.1,20.7,2.9
	c21.5,2.4,40.1,2.6,56.7,0.6c4.7-0.6,9.2-1.3,13.5-2.2c1.6-0.3,3.2-0.7,4.7-1.1c0.4-0.1,0.7-0.2,1.1-0.3c6.5-1.7,11.7-6.6,13.9-13
	C558.3,487.1,558.5,483.2,557.6,479.5z"/>
<path class="st8" d="M388.4,604.2l-11.4-5.5l-1.8-0.9l-2.9,7l-20,4.4c-2.6,0.6-4.2,3.1-3.6,5.7c0.3,1.5,1.4,2.8,2.8,3.4l19.6,8
	l6.2-5.6l-1.5,7.5l7.4,3l8.1-25.7L388.4,604.2z"/>
<polygon class="st8" points="458.7,593.3 459.4,595.2 458.7,595.2 "/>
<path class="st8" d="M454.7,595.6l-12,4.2l-1.9,0.7l2.9,7l-11.1,17.2c-1.4,2.2-0.8,5.1,1.4,6.6c1.3,0.8,3,1,4.4,0.4l19.5-8.1
	l0.5-8.3l4.2,6.4l7.3-3l-12.3-23.9L454.7,595.6z"/>
<path class="st7" d="M554.6,490.7c-0.7,0-1.4-0.2-2-0.5l-63.3-33.1l-0.7-3l-1.4-9.5v-0.1l6-27.7c-0.1-0.2-0.3-0.6-0.6-1.1
	c-2.7-4.6-10.9-18.4,4.7-37.5l27.4-31.9l23.5-1l0.3,0.3c12.8,16,16.7,37.4,10.4,56.9l-2.4,44.2l2.6,8.9c1.5,5.2,1.3,10.9-0.7,15.9
	L559,486c0.1,2.4-1.8,4.5-4.2,4.6C554.7,490.7,554.7,490.7,554.6,490.7L554.6,490.7z"/>
<path class="st6" d="M499.7,527.2c4-2.4,5.4-7.6,3-11.7c-0.3-0.4-0.5-0.8-0.9-1.2l15.2-26.2l-15.7,0.9l-12,24.7
	c-3.4,3.3-3.4,8.7-0.1,12.1C492,528.7,496.3,529.2,499.7,527.2z"/>
<path class="st7" d="M505.9,508l-14.1-11l25.5-49.5l-9.6-63c-1.8-11.7,6.3-22.7,18-24.5c1.3-0.2,2.6-0.3,3.9-0.2l0,0
	c11.8,0.4,21.1,10.3,20.8,22.2l-2.4,71.8L505.9,508z"/>
<path id="f4e08e8b-ef08-4d70-8ad3-b81af8a71ff9-493" class="st8" d="M509.7,333.1v-23.3c0-17.2,13.9-31.2,31.2-31.2
	c17.2,0,31.2,13.9,31.2,31.2l0,0l0,0c5.5,11.5,2.1,16.9,0,23.3c0,2.3-1.9,4.2-4.2,4.2h-54C511.6,337.3,509.7,335.4,509.7,333.1z"/>
<ellipse class="st6" cx="530.6" cy="312.5" rx="23.3" ry="23.3"/>
<path class="st8" d="M555.1,318.6c-0.2,0-0.4-0.1-0.6-0.1c-3.6-0.6-7.3-1.3-10.9-1.9l-0.3-8.2l-4.4,7.4c-10,3.3-19.4,1.4-28.2-2.7
	c-2.9-1.4-5.7-2.9-8.5-4.7c1.5-9.2,7.1-17.3,15.2-21.9c0.3-0.2,0.7-0.4,1-0.5l0,0l0,0c0.6-0.3,1.1-0.5,1.7-0.8
	c9.3-3.6,19.8-1.6,27,5.2C554.1,297.1,557.3,308.4,555.1,318.6z"/>
</svg>
