<?xml version="1.0" encoding="utf-8"?>
<!-- Generator: Adobe Illustrator 26.0.0, SVG Export Plug-In . SVG Version: 6.00 Build 0)  -->
<svg version="1.1" id="Layer_1" xmlns="http://www.w3.org/2000/svg" xmlns:xlink="http://www.w3.org/1999/xlink" x="0px" y="0px"
	 viewBox="0 0 550 488.5" style="enable-background:new 0 0 550 488.5;" xml:space="preserve">
<style type="text/css">
	.st0{fill:#DDDDDD;}
	.st1{fill:#CCCCCC;}
	.st2{fill:#A0616A;}
	.st3{fill:#2F2E41;}
	.st4{fill:#202830;}
	.st5{fill:#E07A5F;}
	.st6{fill:#3F3D56;}
	.st7{fill:#FFFFFF;}
	.st8{fill:#F2F2F2;}
</style>
<path class="st0" d="M272.2,262H106.5c-9.1,0-16.5-7.4-16.5-16.5v-86c0-9.1,7.4-16.5,16.5-16.5h165.7c9.1,0,16.5,7.4,16.5,16.5v86
	C288.7,254.6,281.4,262,272.2,262z"/>
<path class="st0" d="M490.5,262H324.8c-9.1,0-16.5-7.4-16.5-16.5v-86c0-9.1,7.4-16.5,16.5-16.5h165.7c9.1,0,16.5,7.4,16.5,16.5v86
	C507,254.6,499.6,262,490.5,262z"/>
<path class="st0" d="M288.7,405H90V295.5c0-9.1,7.4-16.5,16.5-16.5h165.7c9.1,0,16.5,7.4,16.5,16.5V405z"/>
<path class="st0" d="M507,405H308.3V295.5c0-9.1,7.4-16.5,16.5-16.5h165.7c9.1,0,16.5,7.4,16.5,16.5V405z"/>
<path class="st0" d="M490.5,126H324.8c-9.1,0-16.5-7.4-16.5-16.5v-93c0-9.1,7.4-16.5,16.5-16.5h165.7c9.1,0,16.5,7.4,16.5,16.5v93
	C507,118.6,499.6,126,490.5,126z"/>
<path class="st0" d="M272.2,126H106.5c-9.1,0-16.5-7.4-16.5-16.5v-93C90,7.4,97.4,0,106.5,0h165.7c9.1,0,16.5,7.4,16.5,16.5v93
	C288.7,118.6,281.4,126,272.2,126z"/>
<path class="st1" d="M501.5,410h-402c-5.2,0-9.5-4.3-9.5-9.5s4.3-9.5,9.5-9.5h402c5.2,0,9.5,4.3,9.5,9.5S506.7,410,501.5,410z"/>
<path class="st1" d="M283,400H119v-38c0-45.3,36.7-82,82-82s82,36.7,82,82V400z"/>
<path class="st1" d="M479,400H315v-38c0-45.3,36.7-82,82-82s82,36.7,82,82V400z"/>
<rect x="389.5" y="403.5" class="st1" width="13" height="84"/>
<path class="st1" d="M352.5,487c0,1.4,19.7,0.5,44,0.5s44,0.9,44-0.5s-19.7-12.5-44-12.5S352.5,485.6,352.5,487z"/>
<rect x="193.5" y="403.5" class="st1" width="13" height="84"/>
<path class="st1" d="M156.5,487c0,1.4,19.7,0.5,44,0.5s44,0.9,44-0.5s-19.7-12.5-44-12.5S156.5,485.6,156.5,487z"/>
<polygon class="st2" points="258.4,476 270.7,476 276.5,428.8 258.4,428.8 "/>
<path class="st3" d="M294.3,487.4l-38.5,0l0,0l0-14.9l0,0l23.6,0C287.7,472.5,294.3,479.2,294.3,487.4
	C294.3,487.4,294.3,487.4,294.3,487.4L294.3,487.4L294.3,487.4z"/>
<polygon class="st2" points="277.6,469.2 289.3,465.5 280.7,418.7 263.4,424.1 "/>
<path class="st3" d="M315.2,469.3l-36.8,11.5l0,0l-4.5-14.2l0,0l22.6-7.1C304.4,457.1,312.8,461.5,315.2,469.3L315.2,469.3
	L315.2,469.3z"/>
<path class="st3" d="M269.4,447.4l-22.4-58.9c-5,1.2-47.2,10.5-61.4-4.5c-4.8-5.2-5.8-12.6-2.8-22.2l8.2-10.4l0.3,0
	c3.1,0.2,76.4,4.3,81.5,26.4c4.2,18.6,12,53.4,14.2,63.6c0.5,2.2-0.7,4.4-2.8,5.2l-9,3.4c-0.5,0.2-1,0.3-1.6,0.3
	C271.7,450.3,270,449.2,269.4,447.4z"/>
<path class="st3" d="M256.4,454.4l-22.4-58.9c-5,1.2-47.2,10.5-61.4-4.5c-4.8-5.2-5.8-12.6-2.8-22.2l8.2-10.4l0.3,0
	c3.1,0.2,76.4,4.3,81.5,26.4c4.2,18.6,12,53.4,14.2,63.6c0.5,2.2-0.7,4.4-2.8,5.2l-9,3.4c-0.5,0.2-1,0.3-1.6,0.3
	C258.7,457.3,257,456.2,256.4,454.4z"/>
<path class="st2" d="M236.2,340.2c-6.8,0-13-3.6-16.5-9.4l-7.1-12.1l16.9-9.3l7.2,9.9l48.8-5.1c0.2-0.4,0.5-0.8,0.8-1.2l0,0
	c1.9-2.5,4.8-4.1,7.9-4.3c3.1-0.3,6.2,0.8,8.5,3c3.7,3.5,4.5,9.2,1.9,13.6c-3.1,5.2-9.9,6.9-15.1,3.8c-0.4-0.2-0.7-0.4-1-0.7
	c-0.3-0.2-0.6-0.5-0.8-0.7l-46.7,11.9C239.3,340,237.8,340.2,236.2,340.2z"/>
<path class="st4" d="M169.5,371.9c-1.4-1-2.1-2.7-1.8-4.3c2.8-18.3-0.4-44.6-3.6-63.4c-2.3-13.5,6.8-26.3,20.3-28.6
	c2.4-0.4,4.9-0.5,7.3-0.2c3.3,0.4,6.7,1.1,9.9,2l0,0c11.2,2.8,18.9,13,18.6,24.5c-0.5,18.2,3.2,40.8,4.8,49.7
	c0.2,1.2-0.1,2.5-0.8,3.5c-0.7,1-1.9,1.6-3.1,1.8c-17.8,1.8-37,10.5-46.9,15.5c-0.6,0.3-1.3,0.5-2,0.5
	C171.1,372.8,170.2,372.5,169.5,371.9z"/>
<path class="st4" d="M217.5,324.6c-1.1-0.4-2-1.3-2.5-2.4l-9.9-22.9c-2.5-5.8,0.1-12.6,6-15.1c5.8-2.5,12.6,0.1,15.1,6c0,0,0,0,0,0
	l9.9,22.9c1,2.3-0.1,4.9-2.3,5.9l-12.8,5.6C219.9,325.1,218.6,325.1,217.5,324.6L217.5,324.6z"/>
<circle class="st2" cx="189.8" cy="243" r="24.6"/>
<path class="st3" d="M174.9,264.9c-1.4,1.7-3.9,1.8-5.6,0.4c0,0-0.1,0-0.1-0.1c-5.5-4.4-9.8-10.1-12.7-16.5c-3.2-7.6-3.7-16.9,0-24
	c3.1-6,8.6-9.9,14.1-13c2.1-1.3,4.4-2.3,6.8-2.9c2.5-0.6,5.1-0.1,7.2,1.4c2.2,1.7,3.3,4.5,2.9,7.2c2.5-3.3,5.9-5.9,9.8-7.4
	c2.4-1,5.1-1.2,7.6-0.5c3.5,1.2,6.2,4.8,7.6,8.6c1.2,2.9,1.6,6.1,1.3,9.3c-0.3,3-1.9,5.8-4.3,7.7c-2.9,2-6.6,1.8-10,0.9
	s-6.6-2.4-10-2.8s-7.2,0.5-9.2,3.5c-1.4,2.1-1.8,5-2.1,7.7l-1.5,14c-0.1,2-0.5,4-1.3,5.8C175.3,264.4,175.1,264.6,174.9,264.9z"/>
<path class="st2" d="M227.4,365.9c-3-1-5.3-3.3-6.5-6.2c-0.1-0.3-0.3-0.7-0.4-1l-52.3-14.9c-4.6-1.3-7.8-5.5-7.9-10.3l-0.1-20.2
	l19.3,0.5l1.3,12.1l44.7,20.1c0.4-0.3,0.9-0.5,1.3-0.7h0c5.6-2.4,12.1,0.3,14.4,5.9c2.4,5.6-0.3,12.1-5.9,14.4
	C232.8,366.7,230,366.8,227.4,365.9L227.4,365.9z"/>
<path class="st4" d="M160.5,322.1c-0.8-0.9-1.2-2.1-1.1-3.3l1.5-25c0.4-6.3,5.8-11.2,12.2-10.8c6.3,0.4,11.2,5.8,10.8,12.2
	c0,0,0,0,0,0l-1.5,25c-0.2,2.5-2.3,4.4-4.8,4.2l-14-0.9C162.4,323.6,161.3,323,160.5,322.1L160.5,322.1z"/>
<path class="st5" d="M297.1,334.5h-14.1c-0.9,0-1.7-0.7-1.8-1.6l-2.8-29h23.4l-2.8,29C298.8,333.8,298,334.5,297.1,334.5z"/>
<path class="st6" d="M301.7,307.5h-23.4c-1,0-1.8-0.8-1.8-1.8v-4.4c0-1,0.8-1.8,1.8-1.8h23.4c1,0,1.8,0.8,1.8,1.8v4.4
	C303.5,306.7,302.7,307.5,301.7,307.5z"/>
<path class="st6" d="M84.5,308.5H56c-1.7,0-3.2,1.4-3.2,3.2l0,0v60.2h4.8v-55.4c0-1.7,1.4-3.2,3.2-3.2h0h20.6c1.7,0,3.2,1.4,3.2,3.2
	l0,0v55.4h4.8v-60.2c0-1.7-1.4-3.2-3.2-3.2h0H84.5z"/>
<path class="st5" d="M103.5,487.5H35.4c-7.4,0-13.5-6-13.5-13.5v-99.8c0-7.4,6-13.5,13.5-13.5h68.1c7.4,0,13.5,6,13.5,13.5V474
	C117,481.5,111,487.5,103.5,487.5z"/>
<path class="st6" d="M23.2,443.8c-4.6,0-7.1-9.6-7.1-18.6s2.5-18.6,7.1-18.6s7.1,9.6,7.1,18.6S27.8,443.8,23.2,443.8z M23.2,408.2
	c-2.6,0-5.5,7-5.5,17s2.9,17,5.5,17s5.5-7,5.5-17S25.8,408.2,23.2,408.2z"/>
<path class="st7" d="M98.8,428.1H86.1c-2.2,0-4-1.8-4-4v-9.5c0-2.2,1.8-4,4-4h12.7c2.2,0,4,1.8,4,4v9.5
	C102.7,426.3,101,428.1,98.8,428.1z"/>
<path class="st7" d="M102.7,480.8H30.3c-0.9,0-1.6-0.7-1.6-1.6V368.7c0-0.9,0.7-1.6,1.6-1.6h72.4c0.9,0,1.6,0.7,1.6,1.6
	c0,0.9-0.7,1.6-1.6,1.6H31.9v107.3h70.8c0.9,0,1.6,0.7,1.6,1.6C104.3,480.1,103.6,480.8,102.7,480.8z"/>
<path class="st7" d="M484.7,184.5c-0.9-0.8-2-1.4-3.2-1.8c-2.6-0.8-5.4-1.1-8.1-0.9c-2,0.1-4,0.4-5.9,0.8l-91.2,25.8
	c-1.7,0.5-3.4,1-5.1,1.7c-5.9-2.3-22.5-9-24.3-11.3l-7.1,2.1l11.9,17.8c-0.8,0.4-1.2,1.3-0.8,2.1c0.2,0.4,0.5,0.7,1,0.9
	c13.7,4.7,34.5-1.5,34.5-1.5l79.7-22.8C466,197.3,490.1,189.2,484.7,184.5z"/>
<polygon class="st8" points="439.6,198.7 387.8,212.7 384.7,218.8 "/>
<path class="st1" d="M549,488.5H1c-0.6,0-1-0.4-1-1s0.4-1,1-1h548c0.6,0,1,0.4,1,1S549.6,488.5,549,488.5z"/>
<path class="st7" d="M438.5,87.5c-4.2,0-8.1,1.7-11,4.8c-5.6-2.2-12,0.5-14.3,6.1c-0.5,1.3-0.8,2.7-0.8,4.1h41
	C453.5,94.2,446.8,87.5,438.5,87.5L438.5,87.5z"/>
<path class="st7" d="M218.5,38.5c-4.2,0-8.1,1.7-11,4.8c-5.6-2.2-12,0.5-14.3,6.1c-0.5,1.3-0.8,2.7-0.8,4.1h41
	C233.5,45.2,226.8,38.5,218.5,38.5z"/>
<path class="st7" d="M150.5,169.5c-4.2,0-8.1,1.7-11,4.8c-5.6-2.2-12,0.5-14.3,6.1c-0.5,1.3-0.8,2.7-0.8,4.1h41
	C165.5,176.2,158.8,169.5,150.5,169.5z"/>
</svg>
