<?xml version="1.0" encoding="utf-8"?>
<!-- Generator: Adobe Illustrator 26.0.0, SVG Export Plug-In . SVG Version: 6.00 Build 0)  -->
<svg version="1.1" id="Layer_1" xmlns="http://www.w3.org/2000/svg" xmlns:xlink="http://www.w3.org/1999/xlink" x="0px" y="0px"
	 viewBox="0 0 691.1 756.4" style="enable-background:new 0 0 691.1 756.4;" xml:space="preserve">
<style type="text/css">
	.st0{fill:#E07A5F;}
	.st1{fill:#6C63FF;}
	.st2{fill:#16232C;}
	.st3{opacity:0.8;fill:#999999;enable-background:new    ;}
	.st4{fill:#D1D1D3;}
	.st5{fill:#3F3D56;}
	.st6{fill:#2F2E41;}
	.st7{fill:#FFB6B6;}
	.st8{fill:#DDDDDD;}
</style>
<circle class="st0" cx="179.1" cy="182" r="143.9"/>
<path class="st1" d="M394.1,55.6L116.9,208.3c-32,41,576.3,43.6,571.3,0.2L419.5,55.8C411.8,51.4,401.8,51.3,394.1,55.6z"/>
<path class="st2" d="M394.1,55.6L116.9,208.3c-32,41,576.3,43.6,571.3,0.2L419.5,55.8C411.8,51.4,401.8,51.3,394.1,55.6z"/>
<path class="st3" d="M687.1,756.4l-70.5-1.5H133.2L0,751.8C441.5,647.5,305.7,656.5,687.1,756.4z"/>
<path class="st4" d="M622.2,751.8l-5.6,3H133.2C463.6,686.6,265.5,692.6,622.2,751.8z"/>
<path class="st5" d="M388.6,42.9h20.8l-7-39.5C402,0.9,400.3,0,399,0s-3,0.9-3.4,3.3L388.6,42.9z"/>
<rect x="386.6" y="173.3" class="st5" width="22.9" height="559.5"/>
<path class="st5" d="M398.2,260.7c-9.8,0-19-3.8-25.9-10.7l-57.9-57.5l4.7-4.8l57.9,57.5c5.8,5.7,13.4,8.8,21.5,8.7
	s15.7-3.3,21.3-9.1l55.3-57l4.8,4.7l-55.3,57c-6.9,7.1-16.2,11.1-26.1,11.2C398.4,260.7,398.3,260.7,398.2,260.7L398.2,260.7z"/>
<path class="st2" d="M406.2,216.8c-28.5,0-57.2-0.1-85.1-0.3c-59-0.4-109.5-1.2-145.8-2.4c-61.9-2-62.6-4.2-62.9-5.1
	c-0.1-0.2-0.1-0.6,0.5-1L389.4,26.2c6.6-4.4,15.2-4.3,21.8,0.2l279.4,181.8c0.6,0.4,0.6,0.8,0.5,1c-0.3,1.1-1.4,4.5-124.1,6.5
	C520.3,216.4,463.7,216.8,406.2,216.8z"/>
<g>
	<path class="st5" d="M459.4,486.5h-35c-3.9,8.7,1.4,18.9,8.3,25.6c6.9,6.7,15.4,11.8,20.5,19.9c11.2,18,0.6,41.7,4.4,62.5
		c5,28.1,34.5,45.8,43.5,72.9c5.1,15.3,2.8,32.9-6.1,46.5c-1.6,2.5-3.5,5-4.1,7.9c-0.8,4,1.3,8.4,4.9,10.2s8.4,1.1,11.2-1.8
		c-2.8,3.1-1.9,8.5,1.2,11.3s7.7,3.4,11.8,2.5c13.3-2.8,20-18.2,20.5-31.8s-2.9-27.3-0.2-40.7c1.7,19.1,23.3,31.3,25,50.4
		c0.3,3.5-19.3,14.2-17.5,17.3c4.6,7.7,15.6,7.8,24.5,6.8c15.4-1.6,32.5-4.1,42.2-16.2c6.5-8.2,8.2-19.1,8.4-29.6
		c0.6-27.2-7.6-54.6-22.9-77.1c-20.4-30-52.8-51.2-68.8-83.8c-5.4-11.1-8.8-23.1-14.1-34.2c-5.3-11.1-13.1-21.8-24.4-26.8
		s-26.4-2.5-32.9,7.9"/>
	<path class="st6" d="M568,725.9c-0.7,0-1.4-0.1-2-0.4c-0.5-0.2-0.7-0.8-0.5-1.3s0.8-0.7,1.3-0.5c1.1,0.5,2.2,0.2,2.9-0.2
		c1.4-0.8,2.6-2.3,2.8-3.9c0.5-3-1.1-6.1-2.4-8.9c-3.9-8-7.8-16.5-8.4-25.6c-0.7-10.2,3.5-19.7,10.7-24.2c5.3-3.3,12.4-4.2,19.8-2.5
		c6.4,1.5,12.3,4.7,18.2,8c0.5,0.3,0.7,0.9,0.4,1.4s-0.9,0.7-1.4,0.4c-6.1-3.4-11.6-6.4-17.7-7.8c-6.9-1.6-13.4-0.8-18.3,2.2
		c-6.5,4.1-10.4,12.9-9.8,22.3c0.6,8.7,4.3,17,8.2,24.8c1.4,2.9,3.1,6.4,2.6,10.1c-0.3,2.2-1.8,4.3-3.8,5.4
		C569.8,725.6,568.9,725.9,568,725.9L568,725.9z"/>
	<path class="st6" d="M509.7,503.9c5.1,10.2,2.4,23.7-6.2,31.2c-1.9,1.6-4,2.9-5.6,4.7s-2.9,4.2-2.5,6.7
		c-5.7-5.6-11.5-11.4-14.9-18.7c-3.4-7.2-4.1-16.3,0.4-22.9c2.1-3.2,5.2-5.5,7.7-8.5c2.4-3,4.2-7,2.9-10.6"/>
	<path class="st5" d="M611.9,699.8c-2.7,8.3,1.8,17.9,9.1,22.6s16.8,5.2,25.3,3.1c16.4-4.2,29.8-18.2,33.3-34.7
		c1.4-6.9,1.3-14.3,4.6-20.5c2.1-3.9,5.4-7.4,5.5-11.9c0.1-3.6-2.3-7-5.4-8.7s-7.1-1.7-10.5-0.6c-8.2,2.6-13.2,10.9-15.8,19
		c-2.6,8.2-3.6,16.9-7.3,24.6c-3.8,7.7-11.6,14.4-20,13.2c-7.3-1-13.5-7.6-20.9-6.7"/>
</g>
<g>
	<path id="uuid-54f431d9-8f52-4369-9c0b-5619dfe5d050-104" class="st7" d="M202.2,596.1c-9.9,1.5-17.2,7.9-16.2,14.2
		s9.8,10.2,19.7,8.7c4-0.6,7.8-2.1,11-4.4l71.7-10.8l2.7-24.8L214,597C210.2,595.8,206.2,595.5,202.2,596.1L202.2,596.1z"/>
	<polygon class="st8" points="382.9,544.5 366.7,579 284.9,606.5 284.9,606.5 288.9,578.5 288.9,578.5 364.4,542.8 	"/>
	<polygon class="st7" points="232.2,675.5 217.6,712.4 198.7,699.5 209.8,660.9 	"/>
	<polygon class="st7" points="171.2,661.7 132.6,698.7 148,715 187.5,684.1 	"/>
	<polygon class="st7" points="390.2,541.5 389.8,538.5 379.9,519.2 347.2,527.8 353.3,554.4 	"/>
	<path class="st6" d="M376.4,670.3l1,12.9c0,0,4.1,54.1-29.3,58.4s-48.1,8.6-67.8-24.9l-30.9-55l-18.1,21.5l-24-18.9
		c0,0,17.2-67,30.9-69.6c1.7-0.3,3.4-0.5,5.1-0.5c11.4-0.2,22.1,5.3,28.9,14.4l39,52.2l14.2-6.4L376.4,670.3L376.4,670.3z"/>
	<path class="st7" d="M191,710.7l8.7-12.8l19.9,9.5c0,0,6.6,23.1-1.1,25.7s-29.2-0.9-29.2-0.9s-39.5,8.6-40.4,0.9s18-9.4,18-9.4
		L191,710.7L191,710.7L191,710.7z"/>
	<path class="st6" d="M275.1,700.4l-59.7-37.6l-30.5,27.3l-20.6-24c0,0,37.8-55.8,48.9-58.4c11.2-2.6,29.2-4.3,29.2-4.3l55,50.7
		L275.1,700.4L275.1,700.4L275.1,700.4z"/>
	<path class="st7" d="M136.7,695.4l12.6,18l-0.5,5.6c0,0-5.1,22.3-17.1,14.8s-12.9-9.3-12.9-9.3s-34.4,7.7-37.8-6s6-11.2,6-11.2
		l8.6,5.2l33.4-11.2L136.7,695.4L136.7,695.4z"/>
	<circle class="st7" cx="357.6" cy="509.7" r="27.5"/>
	<path class="st8" d="M351.1,548.8l39.5-12c0,0,15.5,36.1,12.9,52.4c-2.6,16.3-26,94.1-26,94.1l-52.1-28.8c0,0-0.9-17.2-3.4-24.9
		s-10.7-31.3,7.3-51.1C347.2,558.7,351.1,548.8,351.1,548.8L351.1,548.8z"/>
	<g>
		<path id="uuid-b26c39a4-6f50-479a-8ec8-74191e458edf-105" class="st7" d="M264.2,729.1c-6.4,7.7-7.7,17.3-2.8,21.4
			c4.9,4.1,14.1,1.2,20.5-6.5c2.6-3,4.5-6.7,5.4-10.6l60.9-68.2L329.3,655l-55.7,67C269.9,723.6,266.7,726,264.2,729.1L264.2,729.1
			L264.2,729.1z"/>
		<polygon class="st8" points="381.4,566.1 390.8,603.1 345.1,676.3 349.2,675.3 324.2,657 330.3,652.1 366,576.7 		"/>
	</g>
	<path class="st6" d="M332.2,505c7,0,7.4,0,8.6,0c8.7-0.2,11-3.7,15.5-3.4c7.9,0.4-2.5,40.1-6.9,58.4c-4.3,18,10.1,34.1,11.2,35.2
		c14.6,15.9,40.3,18.8,44.7,12c3.6-5.5-9.1-13.8-6-25.8c3-11.7,16.8-10.5,20.6-21.5c4-11.5-9.5-17.4-18-45.5
		c-4.9-16.2-4-19.2-8.6-29.2c-12.2-26.8-72-15.4-65.3,9.4C329.2,499.5,325.8,505,332.2,505L332.2,505z"/>
</g>
</svg>
