<svg xmlns="http://www.w3.org/2000/svg" viewBox="0 0 497.19 254.02"><defs><style>.cls-1,.cls-2{fill:#16232c;}.cls-2{font-size:75.12px;font-family:EtihadAltis-Medium, Etihad Altis;font-weight:500;}.cls-3{fill:#e07a5f;stroke:#e07a5f;stroke-miterlimit:10;stroke-width:0.31px;}</style></defs><g id="Layer_2" data-name="Layer 2"><g id="Layer_1-2" data-name="Layer 1"><path class="cls-1" d="M128.41,94.78a67.17,67.17,0,0,1-10.73,36.52,67.66,67.66,0,0,1-54,4.16,82.13,82.13,0,0,0,64.39-47.05C128.31,90.5,128.41,92.63,128.41,94.78Z"/><path class="cls-1" d="M119.94,77.06a50,50,0,0,1-45.78,49.78,81.91,81.91,0,0,0,34.07-66.56,81.61,81.61,0,0,0-1.36-14.93,66.45,66.45,0,0,1,6.53,7A49.62,49.62,0,0,1,119.94,77.06Z"/><text class="cls-2" transform="translate(188.95 159.99) scale(0.95 1)">Crewdule</text><path class="cls-1" d="M267.87,175.2h9.4v1h-8.2v6.87H276v1h-6.92v8.3h-1.2Z"/><path class="cls-1" d="M278.87,186.18c0-4.2,2.63-6.61,5.64-6.61s5.64,2.41,5.64,6.61-2.62,6.57-5.64,6.57S278.87,190.34,278.87,186.18Zm10.07,0c0-3.3-1.89-5.59-4.43-5.59s-4.42,2.29-4.42,5.59,1.89,5.55,4.42,5.55S288.94,189.49,288.94,186.18Z"/><path class="cls-1" d="M293.93,179.88h1l.12,2.34h.06c.85-1.54,2.08-2.65,3.57-2.65a2.58,2.58,0,0,1,1.25.26l-.26,1a2.89,2.89,0,0,0-1.14-.21c-1.13,0-2.47.86-3.43,3.24v8.54h-1.15Z"/><path class="cls-1" d="M306.39,186.18c0-4.2,2.69-6.61,5.74-6.61a5.16,5.16,0,0,1,3.68,1.54l-.68.81a4.3,4.3,0,0,0-3-1.33c-2.57,0-4.55,2.29-4.55,5.59s1.8,5.55,4.53,5.55a5,5,0,0,0,3.37-1.45l.59.81a5.92,5.92,0,0,1-4,1.66C308.85,192.75,306.39,190.34,306.39,186.18Z"/><path class="cls-1" d="M319.2,179.88h1l.12,2.34h.06c.85-1.54,2.08-2.65,3.57-2.65a2.58,2.58,0,0,1,1.25.26l-.27,1a2.81,2.81,0,0,0-1.13-.21c-1.13,0-2.47.86-3.43,3.24v8.54H319.2Z"/><path class="cls-1" d="M326.17,186.18c0-4.09,2.66-6.61,5.48-6.61,3,0,4.81,2.11,4.81,5.81a6,6,0,0,1-.07.94h-9c0,3.17,1.9,5.43,4.73,5.43a5.67,5.67,0,0,0,3.37-1.11l.48.88a6.94,6.94,0,0,1-4,1.23C328.77,192.75,326.17,190.29,326.17,186.18Zm9.2-.81c0-3.21-1.46-4.81-3.71-4.81s-4.05,1.8-4.31,4.81Z"/><path class="cls-1" d="M338.39,179.88h1.25L341.9,188c.31,1.16.6,2.24.86,3.36h.1c.3-1.12.61-2.2.92-3.36l2.29-8.13h1.37l2.29,8.13c.31,1.16.62,2.24.92,3.36h.11l.9-3.36,2.22-8.13H355l-3.59,12.56h-1.51l-2.22-7.8c-.35-1.2-.6-2.36-1-3.59h-.11c-.3,1.23-.6,2.43-1,3.64l-2.16,7.75h-1.4Z"/><path class="cls-1" d="M364.48,191.17h-.06l-.13,1.27h-1V173.62h1.15v5.47l-.05,2.44a7.1,7.1,0,0,1,4.32-2c3.37,0,5,2.52,5,6.4,0,4.27-2.57,6.78-5.54,6.78A6.38,6.38,0,0,1,364.48,191.17Zm8.09-5.19c0-3.09-1.1-5.39-4-5.39a6.49,6.49,0,0,0-4.09,2.07v7.45a6,6,0,0,0,3.7,1.62C370.73,191.73,372.57,189.38,372.57,186Z"/><path class="cls-1" d="M375.69,197.89l.26-1a3.43,3.43,0,0,0,1,.2c1.53,0,2.58-1.42,3.22-3.33l.34-1.1-5.16-12.79h1.25l3,7.89c.42,1.07.91,2.41,1.37,3.53h.1c.4-1.12.81-2.46,1.17-3.53l2.67-7.89h1.18l-5,14.14c-.7,2.09-2,4.14-4.22,4.14A3.14,3.14,0,0,1,375.69,197.89Z"/><path class="cls-1" d="M393.06,186.18c0-4.2,2.68-6.61,5.74-6.61a5.18,5.18,0,0,1,3.68,1.54l-.68.81a4.3,4.3,0,0,0-3-1.33c-2.57,0-4.55,2.29-4.55,5.59s1.8,5.55,4.53,5.55a5,5,0,0,0,3.36-1.45l.6.81a5.94,5.94,0,0,1-4,1.66C395.51,192.75,393.06,190.34,393.06,186.18Z"/><path class="cls-1" d="M405.86,179.88h1l.13,2.34H407c.85-1.54,2.07-2.65,3.57-2.65a2.52,2.52,0,0,1,1.24.26l-.26,1a2.81,2.81,0,0,0-1.13-.21c-1.13,0-2.47.86-3.43,3.24v8.54h-1.16Z"/><path class="cls-1" d="M412.84,186.18c0-4.09,2.66-6.61,5.48-6.61,3,0,4.8,2.11,4.8,5.81a5.94,5.94,0,0,1-.06.94h-9c0,3.17,1.89,5.43,4.72,5.43a5.7,5.7,0,0,0,3.38-1.11l.47.88a6.88,6.88,0,0,1-4,1.23C415.44,192.75,412.84,190.29,412.84,186.18Zm9.19-.81c0-3.21-1.45-4.81-3.7-4.81s-4.05,1.8-4.31,4.81Z"/><path class="cls-1" d="M425.06,179.88h1.24l2.27,8.13c.3,1.16.6,2.24.85,3.36h.11c.3-1.12.6-2.2.92-3.36l2.28-8.13h1.37l2.3,8.13c.31,1.16.61,2.24.92,3.36h.11c.3-1.12.59-2.2.89-3.36l2.22-8.13h1.17l-3.59,12.56H436.6l-2.21-7.8c-.35-1.2-.61-2.36-1-3.59h-.1c-.3,1.23-.6,2.43-1,3.64l-2.16,7.75h-1.41Z"/><path class="cls-1" d="M107,143.55V144a67.86,67.86,0,0,1-12.71,9.4c-.8.45-1.61.9-2.43,1.31l-.13.07a66.48,66.48,0,0,1-21.08,6.74h0c-1.91-.16-3.85-.25-5.8-.25l-1.35,0h-.06a67,67,0,0,0-8.32.68h0A67.91,67.91,0,0,0,2.57,202.32V172.9a68,68,0,0,1,23.68-20.23,66.46,66.46,0,0,1,6.89-3.06h0a68.23,68.23,0,0,1,32.54-3.89c1.83.37,3.69.69,5.56.94h.08a82.46,82.46,0,0,0,10.26.71h.61A81.85,81.85,0,0,0,107,143.55Z"/><path class="cls-3" d="M5.5,214.26c0,20.82,16.59,34.16,37.41,34.16h54.4c1.42,0,2.86.05,4.28,0a5.4,5.4,0,0,1,5.45,5.39H39.09A39,39,0,0,1,.15,214.93V39.1A38.91,38.91,0,0,1,39.09.17H99c2.76,0,5.17.07,8,0h0c0,3.6-2.6,5.11-6.68,5.32-1.1.06-2.27.09-3.31.09L40,5.67c-4.9.45-9.1.74-13.12,3C16.18,14.81,5.5,27.38,5.5,43.3Z"/></g></g></svg>