<?xml version="1.0" encoding="utf-8"?>
<!-- Generator: Adobe Illustrator 26.0.0, SVG Export Plug-In . SVG Version: 6.00 Build 0)  -->
<svg version="1.1" id="Layer_1" xmlns="http://www.w3.org/2000/svg" xmlns:xlink="http://www.w3.org/1999/xlink" x="0px" y="0px"
	 viewBox="0 0 1082.1 583.6" style="enable-background:new 0 0 1082.1 583.6;" xml:space="preserve">
<style type="text/css">
	.st0{fill:#D1D1D3;}
	.st1{fill:#16232C;}
	.st2{fill:#FEB8B8;}
	.st3{fill:#3F3D56;}
	.st4{fill:#E6E6E6;}
	.st5{fill:#E07A5F;}
</style>
<path id="f49d3234-3c8e-421e-8fbc-1882acc2b62b-589" class="st0" d="M873.6,583.6H217.4c-6.7,0-12.1-4.6-12.1-10.3V98.5
	c0-5.7,5.4-10.3,12.1-10.3h656.1c6.7,0,12.1,4.6,12.2,10.3v474.8C885.7,579,880.3,583.6,873.6,583.6z M217.4,92.4
	c-4,0-7.3,2.8-7.3,6.2v474.8c0,3.4,3.3,6.2,7.3,6.2h656.1c4,0,7.3-2.8,7.3-6.2V98.5c0-3.4-3.3-6.2-7.3-6.2L217.4,92.4z"/>
<path id="aa45fc53-812a-4d29-b97e-7f1282d3d680-590" class="st1" d="M487.3,281.1l175-35l3.8,96l-13.7,108.8l9.9,129.7H473.6
	l4.9-150.5c0,0-42.1-59.4-17.3-119.3L487.3,281.1z"/>
<path id="ab28f9f1-3872-4572-9db3-fdc0c2b56930-591" class="st2" d="M877.5,53.3c3.3,15.2-6.3,30.3-21.6,33.6
	c-1.6,0.4-3.3,0.6-4.9,0.6L683.2,282.1l-39-47.4L821.4,58.4c0.4-15.7,13.5-28,29.2-27.5C863.7,31.2,874.8,40.5,877.5,53.3
	L877.5,53.3z"/>
<path id="e38d1f50-71d2-4502-a947-37a79b1baefe-592" class="st1" d="M719.7,260.9c0.1,3.7-1.4,7.2-4.2,9.7L668.4,313
	c-12.3,15-34.5,17.2-49.5,4.9c-15-12.3-17.2-34.5-4.8-49.5l32.9-54.5c3.6-6,11.4-7.9,17.4-4.3c0.5,0.3,1,0.7,1.5,1.1l49.3,40.7
	C718,253.8,719.7,257.2,719.7,260.9L719.7,260.9z"/>
<path id="a4438e3b-f1f0-4fb4-883b-23c73ca92a93-593" class="st2" d="M212.9,510.6c-1-15.6,10.8-29,26.4-30c1.7-0.1,3.3-0.1,5,0.1
	l195.1-167.2l31.5,52.7L269.1,514.1c-2.8,15.4-17.5,25.7-33,22.9C223.3,534.6,213.7,523.7,212.9,510.6L212.9,510.6z"/>
<circle id="b8db2fb6-f3e1-4f6c-8969-65ed1b7fc810" class="st3" cx="568.6" cy="126.8" r="71.2"/>
<path id="a8ffa943-ba12-47ea-a3ce-887fe10517d1-594" class="st1" d="M400,329.1c0.5-3.6,2.5-6.9,5.6-8.9l53-34.9
	c14.3-13.1,36.6-12,49.6,2.3c13.1,14.3,12,36.6-2.3,49.6c0,0,0,0,0,0c-0.1,0.1-0.2,0.2-0.3,0.3l-40.8,49c-4.5,5.4-12.4,6.1-17.8,1.6
	c-0.5-0.4-0.9-0.8-1.3-1.3l-42.6-47.6C400.7,336.4,399.6,332.8,400,329.1L400,329.1z"/>
<circle id="b8556b8d-ea4d-44f1-881d-63b03cbd5c82" class="st2" cx="561.9" cy="171.8" r="64.5"/>
<path id="b12de61e-1204-4bc3-8fe3-5af6696e169c-595" class="st3" d="M605.8,0c-5.4,7.7-13.4,13.2-22.5,15.4
	c-15.7,4.2-0.1,27.8-0.1,27.8s-5.7-8.6,2.5-17.7S607.1,10.3,605.8,0z"/>
<circle id="b3381070-dd63-42ff-a7f2-d7b052b00dac" class="st3" cx="580.4" cy="48.9" r="19.9"/>
<path id="a59edb5f-8afb-4734-b526-6942bc6c3436-596" class="st1" d="M610.1,65.6c-16.2-6.1-43.1-9.2-57-7.1l1.9-13.9
	c13.3,6.9,40.2,10.1,57,7.1L610.1,65.6z"/>
<path id="a799e502-b5ec-41bb-ac2d-d7f36e72d183-597" class="st3" d="M572.7,68.2c0,0-20.3,33.7-67.5,46.4s-0.4,83.5-0.4,83.5
	s-17-25.8,7.5-53.1S576.4,99,572.7,68.2z"/>
<path id="b966a1bb-b26c-4365-9b42-58e2bab2452b-598" class="st3" d="M580.4,68.5c0,0,19.5,46.3,40.9,50.7s19.8,77.6-13.7,88.6
	c0,0,24.4-42.9,3.5-71.7S577.1,84.5,580.4,68.5z"/>
<rect id="f9722a62-0ff9-4c04-8bc3-c55c9a508670" y="580.6" class="st4" width="1082.1" height="2"/>
<path class="st5" d="M188.9,533c0-10.5-8.5-19.1-19.1-19.1c0,0,0,0,0,0h0v-14.7H96.4v72.7c0,5.3,4.3,9.6,9.6,9.6h0h54.3
	c5.3,0,9.6-4.3,9.6-9.6l0,0v-19.8C180.3,552.1,188.9,543.6,188.9,533z M169.8,544.8L169.8,544.8l0-23.5c6.5,0,11.7,5.3,11.7,11.7
	S176.3,544.8,169.8,544.8L169.8,544.8z"/>
<path id="aa566eb5-3f42-4528-81f0-de30369d1f39-599" class="st0" d="M973.5,511.7c14.4,15.4,15.1,38.1,15.1,38.1
	s-22.6-2.3-36.9-17.8S936.5,494,936.5,494S959.1,496.3,973.5,511.7z"/>
<path id="abd5ca91-6d07-45db-b5e3-f61f3053fe6d-600" class="st0" d="M1018.7,535.8c-15.4,14.4-38.1,15.1-38.1,15.1
	s2.3-22.6,17.8-36.9s38.1-15.1,38.1-15.1S1034.2,521.4,1018.7,535.8z"/>
<path id="ab90bebd-a5e2-40ec-8bc4-54c2d6be70fa-601" class="st0" d="M1014.9,581.6h-56.7c-2.2,0-4.2-1.3-5.2-3.3l-12.4-25.4
	c-1.4-2.9-0.2-6.4,2.7-7.8c0.8-0.4,1.7-0.6,2.5-0.6h81.4c3.2,0,5.8,2.6,5.8,5.8c0,0.9-0.2,1.8-0.6,2.5l-12.4,25.4
	C1019.1,580.3,1017.1,581.6,1014.9,581.6L1014.9,581.6z"/>
</svg>
