<svg xmlns="http://www.w3.org/2000/svg" viewBox="0 0 279.77 333.1"><defs><style>.cls-1{fill:#3f3d56;}.cls-2{fill:#e07a5f;}.cls-3{fill:#fff;}.cls-4{fill:#ffb7b7;}.cls-5{fill:#2f2e41;}.cls-6{fill:#cbcbcb;}</style></defs><g id="Layer_2" data-name="Layer 2"><g id="Layer_1-2" data-name="Layer 1"><path class="cls-1" d="M50.7,299.51c-9.26-2.56-13.21,11.5-4,14.14S59.93,302.15,50.7,299.51Z"/><path class="cls-1" d="M102,317.6c-9.26-2.56-13.21,11.5-4,14.14S111.25,320.24,102,317.6Z"/><path class="cls-1" d="M122.78,169.36l-.14,0L98.8,234.05l-3.14-.89,24-65.19h0a4.41,4.41,0,0,1,3.69-4.12c11.92-1.88,16.75,8.7,16.75,8.7l-.05.07-24.37,66.17-3.14-.88,23.65-64.23C129,166.56,122.78,169.36,122.78,169.36Z"/><path class="cls-2" d="M95.23,321.24c-14-.22-31.43-7.81-43.28-13.5a14.78,14.78,0,0,1-7.83-17.34l15.36-54.63A18.5,18.5,0,0,1,68.7,224.4a17.74,17.74,0,0,1,14.17-1.1c.55.25,15.47,4.42,25.34,7.19,5.81,1.62,10,2.8,10.29,2.89s10.66,3.66,8.81,16.27c-1.42,9.69-12.16,45.37-16.71,60.26a16,16,0,0,1-15.14,11.33Z"/><polygon class="cls-3" points="51.61 298.73 71.52 231.34 118.33 244.57 118.61 243.59 70.82 230.08 70.67 230.56 50.62 298.44 51.61 298.73"/><path class="cls-4" d="M134.46,174.83a6.66,6.66,0,0,0-3.05-8.93,6.12,6.12,0,0,0-1.1-.43L129,141.79l-9.91,7.33,2.74,21.37a6.71,6.71,0,0,0,12.6,4.34Z"/><path class="cls-4" d="M211.22,179.24a6.68,6.68,0,0,1,1.64-9.3,7.32,7.32,0,0,1,1-.59l-2.39-23.6,10.92,5.72L223,173a6.71,6.71,0,0,1-11.78,6.23Z"/><polygon class="cls-4" points="152.94 324.33 160.75 324.33 164.46 294.24 152.94 294.24 152.94 324.33"/><path class="cls-5" d="M151,321.78h15.37a9.79,9.79,0,0,1,9.79,9.79v.32H151Z"/><polygon class="cls-4" points="192.35 319.64 199.98 321.28 209.91 292.63 198.65 290.22 192.35 319.64"/><path class="cls-5" d="M190.94,316.74,206,320h0a9.77,9.77,0,0,1,7.52,11.62l-.06.31-24.6-5.27Z"/><path class="cls-5" d="M138.88,152.11a104.15,104.15,0,0,0-.17,54.67L147,241.53,149,318.42,165.79,313l6.82-117.28,31.44,53.36L187.51,313l19,.62,20.55-69.12L209,180l-3.31-15.72Z"/><path class="cls-6" d="M206.71,66.91l-16.66-9.49-28.83-1.67-20,10.5L149.34,122s-15.5,22.25-9.84,37.07c7,18.3,68,27.84,66.77,10-1.88-28.18-4.79-26.23-6.92-40.05-2.34-15.16,14-34.6,14-34.6Z"/><path class="cls-6" d="M147.38,71.75l-1.85-8s-7.93,1-13.42,16.36-15.26,47.68-15.26,47.68l.51,11.75s-3.76,4.35-1.16,6.33-4.69,4.68-1,7.5a10.59,10.59,0,0,1,3.86,10.84l11.33-3.5-.83-18.5,4.49-14.58,12-36.5Z"/><path class="cls-6" d="M200.61,73.12l2.52-7.81s4.65-1.9,8.08,8.82S216.27,112,216.27,112l6.67,32.34s2.49,4.12,1.17,5.3,5.81,2.84,1.66,5,.36-.47-1.19,4.52c-1,3.27,0,5,0,5l-12.83-2.59L208.28,145l-7.94-30.82Z"/><circle class="cls-5" cx="175.69" cy="26.61" r="22.13"/><path class="cls-5" d="M173.42,12.83A46.39,46.39,0,0,0,156.54,1.92C152.46.4,148-.53,143.75.33s-8.31,3.81-9.5,8c-1,3.43,0,7.11,1.55,10.34s3.52,6.21,4.75,9.55a21.82,21.82,0,0,1-22,29.24c4.2.56,8.06,2.53,12.16,3.58s8.93,1,12-2C146,56,146,50.92,145.87,46.44q-.35-10-.7-19.94c-.11-3.39-.21-6.89,1-10.06s4.13-5.93,7.52-5.91c2.57,0,4.85,1.58,6.91,3.12s4.24,3.18,6.81,3.4,5.48-1.66,5.29-4.23Z"/><circle class="cls-4" cx="177.92" cy="34.74" r="16.29"/><path class="cls-5" d="M200.83,33.51H177.31l-.24-3.38-1.21,3.38h-3.62l-.48-6.7-2.39,6.7h-7v-.33A17.59,17.59,0,0,1,179.94,15.6h3.31a17.59,17.59,0,0,1,17.58,17.58Z"/><path class="cls-5" d="M165.91,45.65l-8.59-8.6-1.45-19h19l-.47.47C167.84,25,160.78,34.58,165.91,45.65Z"/><path class="cls-6" d="M279,333.1H.73a.73.73,0,0,1,0-1.46H279a.73.73,0,1,1,0,1.46Z"/></g></g></svg>